<?xml version="1.0" encoding="iso-8859-1"?>
<!-- Generator: Adobe Illustrator 18.0.0, SVG Export Plug-In . SVG Version: 6.00 Build 0)  -->
<!DOCTYPE svg PUBLIC "-//W3C//DTD SVG 1.1//EN" "http://www.w3.org/Graphics/SVG/1.1/DTD/svg11.dtd">
<svg xmlns="http://www.w3.org/2000/svg" xmlns:xlink="http://www.w3.org/1999/xlink" version="1.1" id="Capa_1" x="0px" y="0px" viewBox="0 0 487.689 487.689" style="enable-background:new 0 0 487.689 487.689;" xml:space="preserve" width="50px" height="50px">
<g>
	<path d="M7,322.704l473.689,0.001c2.179,0,4.233-1.015,5.558-2.745c1.325-1.73,1.768-3.978,1.199-6.081   c-12.887-47.678-41.578-90.691-80.787-121.117c-40.466-31.401-89.029-47.999-140.438-47.999H140.134v-18.287c0-3.866-3.134-7-7-7   H47.808c-3.866,0-7,3.134-7,7v18.287H7c-3.866,0-7,3.134-7,7v29.915v52.056v81.971C0,319.57,3.134,322.704,7,322.704z M14,196.556   l33.195,16.324v13.854H14V196.556z M257.267,195.24l142.33,31.493h-142.33V195.24z M266.222,158.763   c28.467,0,56.001,5.424,81.594,15.915h-97.549c-3.866,0-7,3.134-7,7v52.056c0,3.866,3.134,7,7,7h184.938   c15.977,20.289,28.309,43.374,36.132,67.972L14,308.704v-67.971h40.195c3.866,0,7-3.134,7-7v-52.056c0-3.866-3.134-7-7-7H14   v-15.915H266.222z" fill="#a9adb0"/>
	<path d="M480.689,331.631H7c-3.866,0-7,3.134-7,7v22.583c0,3.866,3.134,7,7,7h451.105c16.313,0,29.584-13.27,29.584-29.583   C487.689,334.765,484.555,331.631,480.689,331.631z" fill="#a9adb0"/>
	<path d="M164.78,292.79h53.792c3.866,0,7-3.134,7-7V181.678c0-3.866-3.134-7-7-7H164.78c-3.866,0-7,3.134-7,7V285.79   C157.78,289.656,160.913,292.79,164.78,292.79z M171.78,278.79v-83.857l39.792,19.569v64.288H171.78z" fill="#a9adb0"/>
	<path d="M85.89,240.733h47.195c3.866,0,7-3.134,7-7v-52.056c0-3.866-3.134-7-7-7H85.89c-3.866,0-7,3.134-7,7v52.056   C78.89,237.6,82.024,240.733,85.89,240.733z M92.89,226.733v-30.178l33.195,16.324v13.854H92.89z" fill="#a9adb0"/>
</g>
<g>
</g>
<g>
</g>
<g>
</g>
<g>
</g>
<g>
</g>
<g>
</g>
<g>
</g>
<g>
</g>
<g>
</g>
<g>
</g>
<g>
</g>
<g>
</g>
<g>
</g>
<g>
</g>
<g>
</g>
</svg>
