<svg width="487.6890000000001" height="252.00000000000003" xmlns="http://www.w3.org/2000/svg">

 <g>
  <title>background</title>
  <rect fill="none" id="canvas_background" height="154" width="289.689" y="-1" x="-1"/>
 </g>
 <g>
  <title>Layer 1</title>
  <g id="svg_1">
   <path id="svg_2" fill="#FFFFFF" d="m7,204.766464l473.689,0.001c2.179,0 4.233,-1.015 5.558,-2.745c1.325,-1.73 1.768,-3.978 1.199,-6.081c-12.887,-47.678 -41.578,-90.691 -80.787,-121.117c-40.466,-31.401 -89.029,-47.999 -140.438,-47.999l-126.087,0l0,-18.287c0,-3.866 -3.134,-7 -7,-7l-85.326,0c-3.866,0 -7,3.134 -7,7l0,18.287l-33.808,0c-3.866,0 -7,3.134 -7,7l0,29.915l0,52.056l0,81.971c0,3.865 3.134,6.999 7,6.999zm7,-126.148l33.195,16.324l0,13.854l-33.195,0l0,-30.178zm243.267,-1.316l142.33,31.493l-142.33,0l0,-31.493zm8.955,-36.477c28.467,0 56.001,5.424 81.594,15.915l-97.549,0c-3.866,0 -7,3.134 -7,7l0,52.056c0,3.866 3.134,7 7,7l184.938,0c15.977,20.289 28.309,43.374 36.132,67.972l-457.337,-0.002l0,-67.971l40.195,0c3.866,0 7,-3.134 7,-7l0,-52.056c0,-3.866 -3.134,-7 -7,-7l-40.195,0l0,-15.915l252.222,0l0,0.001z"/>
   <path id="svg_3" fill="#FFFFFF" d="m480.689,213.693464l-473.689,0c-3.866,0 -7,3.134 -7,7l0,22.583c0,3.866 3.134,7 7,7l451.105,0c16.313,0 29.584,-13.27 29.584,-29.583c0,-3.866 -3.134,-7 -7,-7z"/>
   <path id="svg_4" fill="#FFFFFF" d="m164.78,174.852464l53.792,0c3.866,0 7,-3.134 7,-7l0,-104.112c0,-3.866 -3.134,-7 -7,-7l-53.792,0c-3.866,0 -7,3.134 -7,7l0,104.112c0,3.866 3.133,7 7,7zm7,-14l0,-83.857l39.792,19.569l0,64.288l-39.792,0z"/>
   <path id="svg_5" fill="#FFFFFF" d="m85.89,122.795464l47.195,0c3.866,0 7,-3.134 7,-7l0,-52.056c0,-3.866 -3.134,-7 -7,-7l-47.195,0c-3.866,0 -7,3.134 -7,7l0,52.056c0,3.867 3.134,7 7,7zm7,-14l0,-30.178l33.195,16.324l0,13.854l-33.195,0z"/>
  </g>
  <g id="svg_6"/>
  <g id="svg_7"/>
  <g id="svg_8"/>
  <g id="svg_9"/>
  <g id="svg_10"/>
  <g id="svg_11"/>
  <g id="svg_12"/>
  <g id="svg_13"/>
  <g id="svg_14"/>
  <g id="svg_15"/>
  <g id="svg_16"/>
  <g id="svg_17"/>
  <g id="svg_18"/>
  <g id="svg_19"/>
  <g id="svg_20"/>
 </g>
</svg>